<svg width="66" height="67" viewBox="0 0 66 67" fill="none" xmlns="http://www.w3.org/2000/svg">
<g clip-path="url(#clip0)">
<path fill-rule="evenodd" clip-rule="evenodd" d="M31.273 1.29989C32.318 0.604139 33.6792 0.604139 34.727 1.29989L64.603 21.1274C65.4748 21.7049 66 22.6811 66 23.7289V43.8259C66 44.8709 65.4775 45.8499 64.603 46.4301L34.727 66.2576C33.682 66.9506 32.3208 66.9506 31.273 66.2576L1.397 46.4274C0.967683 46.1426 0.615469 45.756 0.371728 45.3021C0.127987 44.8482 0.000286644 44.3411 0 43.8259L0 23.7289C0 22.6839 0.5225 21.7049 1.397 21.1246L31.273 1.29989ZM6.248 29.5506V37.9601L12.54 33.7251L6.248 29.5506ZM18.1748 37.4651L8.745 43.8094L29.876 57.8344V45.2311L18.1775 37.4651H18.1748ZM36.124 45.2311V57.8316L57.255 43.8066L47.8225 37.4651L36.124 45.2311ZM53.4572 33.7279L59.7547 37.9629V29.5479L53.4572 33.7279ZM57.2275 23.7289L47.85 29.9521L36.124 22.0651V9.72314L57.2275 23.7289ZM29.876 9.72314V22.0624L18.1528 29.9494L8.7725 23.7289L29.876 9.72314ZM33 27.4936L23.7875 33.6921L33 39.8054L42.2125 33.6921L33 27.4936Z" fill="white"/>
</g>
<defs>
<clipPath id="clip0">
<rect width="66" height="66" fill="white" transform="translate(0 0.777832)"/>
</clipPath>
</defs>
</svg>
