<svg width="43" height="50" viewBox="0 0 43 50" fill="none" xmlns="http://www.w3.org/2000/svg">
<path d="M3.91194 44.7561L0 0.777832H43L39.0828 44.7491L21.4739 49.6406L3.91194 44.7561Z" fill="#1572B6"/>
<path d="M21.5 45.9023L35.73 41.9497L39.0776 4.37427H21.5V45.9023Z" fill="#33A9DC"/>
<path d="M21.5 20.3074H28.6237L29.1149 14.7842H21.5V9.39014H34.9985L34.8696 10.8368L33.5476 25.7014H21.5V20.3074Z" fill="white"/>
<path d="M21.5331 34.3151L21.5087 34.3221L15.5136 32.6991L15.1304 28.3972H9.72583L10.48 36.8666L21.5069 39.9346L21.5331 39.9276V34.3151Z" fill="#EBEBEB"/>
<path d="M28.1656 25.4729L27.5177 32.6958L21.5139 34.3187V39.9309L32.5496 36.8665L32.6314 35.9556L33.5667 25.4729H28.1656Z" fill="white"/>
<path d="M21.5192 9.39014V14.7852H8.51542L8.40743 13.5721L8.16185 10.8371L8.03296 9.39014H21.5192Z" fill="#EBEBEB"/>
<path d="M21.5 20.3071V25.7026H15.5798L15.4719 24.4895L15.228 21.7542L15.0991 20.3071H21.5Z" fill="#EBEBEB"/>
</svg>
