<svg width="43" height="44" viewBox="0 0 43 44" fill="none" xmlns="http://www.w3.org/2000/svg">
<circle cx="21.5" cy="22.2778" r="21.5" fill="#333333"/>
<g clip-path="url(#clip0)">
<path d="M16.4206 37.4907C19.2243 37.4907 21.4999 35.2189 21.4999 32.4197V27.3488H16.4206C13.6168 27.3488 11.3413 29.6206 11.3413 32.4197C11.3413 35.2189 13.6168 37.4907 16.4206 37.4907Z" fill="#0ACF83"/>
<path d="M11.3413 22.2778C11.3413 19.4787 13.6168 17.2069 16.4206 17.2069H21.4999V27.3488H16.4206C13.6168 27.3488 11.3413 25.077 11.3413 22.2778Z" fill="#A259FF"/>
<path d="M11.3416 12.136C11.3416 9.33682 13.6171 7.06504 16.4208 7.06504H21.5001V17.2069H16.4208C13.6171 17.2069 11.3416 14.9351 11.3416 12.136Z" fill="#F24E1E"/>
<path d="M21.5 7.06504H26.5793C29.383 7.06504 31.6585 9.33682 31.6585 12.136C31.6585 14.9351 29.383 17.2069 26.5793 17.2069H21.5V7.06504Z" fill="#FF7262"/>
<path d="M31.6585 22.2778C31.6585 25.077 29.383 27.3488 26.5793 27.3488C23.7755 27.3488 21.5 25.077 21.5 22.2778C21.5 19.4787 23.7755 17.2069 26.5793 17.2069C29.383 17.2069 31.6585 19.4787 31.6585 22.2778Z" fill="#1ABCFE"/>
</g>
<defs>
<clipPath id="clip0">
<rect width="20.3211" height="30.4256" fill="white" transform="translate(11.3394 7.06504)"/>
</clipPath>
</defs>
</svg>
