<svg width="66" height="67" viewBox="0 0 66 67" fill="none" xmlns="http://www.w3.org/2000/svg">
<path d="M33.0037 0.777835C14.7691 0.770261 0 15.9334 0 34.6488C0 49.4485 9.23897 62.0289 22.1057 66.6491C23.8385 67.0959 23.573 65.8311 23.573 64.9676V59.0978C13.5672 60.302 13.1617 53.5006 12.4907 52.3645C11.134 49.9862 7.92649 49.3803 8.88504 48.2442C11.1634 47.0399 13.4861 48.5472 16.1774 52.6296C18.124 55.591 21.9214 55.0911 23.8458 54.5988C24.2661 52.8189 25.1657 51.2284 26.4044 49.9938C16.0373 48.0852 11.7165 41.5866 11.7165 33.8611C11.7165 30.112 12.9183 26.6658 15.2778 23.8862C13.7737 19.3039 15.4179 15.3805 15.6391 14.7973C19.9231 14.4035 24.3767 17.9481 24.7233 18.2284C27.1565 17.5543 29.9363 17.1983 33.0479 17.1983C36.1743 17.1983 38.9615 17.5694 41.4168 18.2511C42.25 17.5997 46.3792 14.555 50.3609 14.9261C50.5747 15.5093 52.1821 19.3418 50.7664 23.8634C53.1554 26.6507 54.372 30.1272 54.372 33.8839C54.372 41.6245 50.0217 48.1306 39.6251 50.009C40.5156 50.9085 41.2226 51.9813 41.705 53.1647C42.1873 54.3481 42.4353 55.6184 42.4344 56.9013V65.4221C42.4934 66.1037 42.4344 66.7778 43.5404 66.7778C56.5988 62.2561 66 49.5848 66 34.6564C66 15.9334 51.2236 0.777835 33.0037 0.777835Z" fill="white"/>
</svg>
