<svg width="111" height="99" viewBox="0 0 111 99" fill="none" xmlns="http://www.w3.org/2000/svg">
<g filter="url(#filter0_d)">
<path d="M74.9235 6.76318C51.6814 10.19 51.6814 10.19 28.3254 6.76318C20.1336 21.4767 20.1336 19.6827 6.53638 28.6999C10.0425 38.9373 10.0425 45.2926 6.53638 55.5392C19.39 63.8025 21.0896 63.8687 28.3254 77.4851C51.6814 74.0492 51.6814 74.0492 74.9235 77.4851C83.2026 62.8637 83.2093 64.634 96.7126 55.5392C94.17 41.6568 94.17 41.6568 96.7126 28.6999C83.9728 21.2959 83.123 20.3704 74.9235 6.76318Z" fill="url(#paint0_radial)"/>
<path d="M74.9235 6.76318C51.6814 10.19 51.6814 10.19 28.3254 6.76318C20.1336 21.4767 20.1336 19.6827 6.53638 28.6999C10.0425 38.9373 10.0425 45.2926 6.53638 55.5392C19.39 63.8025 21.0896 63.8687 28.3254 77.4851C51.6814 74.0492 51.6814 74.0492 74.9235 77.4851C83.2026 62.8637 83.2093 64.634 96.7126 55.5392C94.17 41.6568 94.17 41.6568 96.7126 28.6999C83.9728 21.2959 83.123 20.3704 74.9235 6.76318Z" fill="url(#paint1_linear)"/>
<path fill-rule="evenodd" clip-rule="evenodd" d="M29.2702 8.91985C25.5881 15.4872 23.4749 18.7775 20.6462 21.3924C19.1642 22.7625 17.5261 23.9121 15.4683 25.2534C14.6965 25.7564 13.8757 26.2802 12.9769 26.8537C11.7466 27.6388 10.3703 28.517 8.77436 29.5625C10.2345 34.1319 11.0023 38.0926 11.0023 42.1161C11.0023 46.134 10.2367 50.0911 8.78053 54.6559C9.53788 55.1389 10.2579 55.5952 10.9441 56.0301C15.272 58.7727 18.2512 60.6608 20.7353 62.9887C23.7362 65.801 26.0057 69.224 29.2947 75.3244C40.1344 73.7305 45.9024 72.9081 51.6672 72.9081C57.4375 72.9081 63.1843 73.7321 73.9891 75.3287C77.7143 68.7954 79.8466 65.529 82.6697 62.9157C84.1481 61.5472 85.7771 60.3918 87.8226 59.0394C88.5719 58.544 89.3696 58.0269 90.2413 57.4618C91.5267 56.6285 92.973 55.691 94.6617 54.5652C93.5644 48.5637 92.9693 45.1252 92.9693 41.7725C92.9693 38.4458 93.555 35.2369 94.6281 29.7538C89.0465 26.4937 85.7016 24.387 82.8668 21.5243C80.0015 18.6308 77.7101 15.0169 74.0238 8.91406C63.1961 10.5098 57.4434 11.3333 51.6672 11.3333C45.8983 11.3333 40.1262 10.5119 29.2702 8.91985ZM74.9235 6.76318C63.3298 8.47253 57.5193 9.32922 51.7083 9.33325C45.8699 9.3373 40.0309 8.48061 28.3254 6.76318C21.4365 19.1365 20.3408 19.8358 12.08 25.1079C10.5177 26.105 8.69901 27.2657 6.53638 28.6999C10.0425 38.9373 10.0425 45.2926 6.53638 55.5392C7.83125 56.3717 9.01292 57.1209 10.0985 57.8092C19.7886 63.9534 21.8185 65.2404 28.3254 77.4851C40.0309 75.7631 45.8699 74.9041 51.7083 74.9082C57.5193 74.9122 63.3298 75.7712 74.9235 77.4851C81.8704 65.2164 82.9929 64.4887 91.1517 59.1992C92.7163 58.1848 94.5397 57.0027 96.7126 55.5392C95.4009 48.3775 94.7659 44.9104 94.8076 41.4529C94.8467 38.2085 95.4817 34.9725 96.7126 28.6999C83.9728 21.2959 83.123 20.3704 74.9235 6.76318Z" fill="#141414"/>
<path fill-rule="evenodd" clip-rule="evenodd" d="M19.887 42.3255C19.887 29.1003 30.9143 15.8218 52.937 15.8218C63.073 15.8218 70.6798 19.0756 75.7529 23.9686C80.8257 28.8613 83.362 35.3901 83.362 41.9343C83.362 48.4784 80.8257 55.0384 75.7532 59.9935C70.6803 64.9489 63.0737 68.2966 52.9376 68.4218C41.9274 68.5577 33.6646 65.3413 28.1537 60.4352C22.643 55.5292 19.887 48.9361 19.887 42.3255ZM52.937 15.9218C30.9596 15.9218 19.987 29.1649 19.987 42.3255C19.987 48.9078 22.731 55.4736 28.2202 60.3605C33.3729 64.9477 40.9472 68.0577 50.9469 68.3094C47.4146 67.8995 44.6898 66.3982 42.7751 64.304C40.5157 61.8328 39.387 58.5391 39.387 55.2468C39.387 51.9545 40.5157 48.6608 42.7751 46.1896C45.0351 43.7177 48.4237 42.0719 52.9365 42.0718C57.4235 42.0094 60.7849 40.3428 63.025 37.8811C65.2658 35.4186 66.387 32.1575 66.387 28.903C66.387 25.6485 65.2658 22.4032 63.0252 19.9721C60.7853 17.5417 57.424 15.9218 52.937 15.9218ZM52.9367 68.3218C48.4499 68.3217 45.0887 66.6863 42.8489 64.2365C40.6082 61.7858 39.487 58.517 39.487 55.2468C39.487 51.9766 40.6082 48.7078 42.8489 46.2571C45.0888 43.8072 48.45 42.1718 52.937 42.1718C57.4499 42.1091 60.839 40.4319 63.0989 37.9484C65.3582 35.4656 66.487 32.1798 66.487 28.903C66.487 25.6263 65.3582 22.3559 63.0987 19.9043C61.2563 17.9051 58.6639 16.4524 55.3238 15.9837C64.2518 16.4535 71.0371 19.5591 75.6835 24.0406C80.7358 28.9135 83.262 35.4159 83.262 41.9343C83.262 48.4526 80.7357 54.9864 75.6833 59.9219C70.6312 64.8571 63.0504 68.1968 52.9367 68.3218ZM49.2457 26.1642C50.0687 25.357 51.3006 24.8218 52.937 24.8218C54.5733 24.8218 55.8052 25.357 56.6282 26.1642C57.4508 26.971 57.862 28.0466 57.862 29.1218C57.862 30.197 57.4508 31.2726 56.6282 32.0793C55.8052 32.8865 54.5733 33.4218 52.937 33.4218C51.3006 33.4218 50.0687 32.8865 49.2457 32.0793C48.4231 31.2726 48.012 30.197 48.012 29.1218C48.012 28.0466 48.4231 26.971 49.2457 26.1642ZM49.3157 32.008C50.1177 32.7945 51.3233 33.3218 52.937 33.3218C54.5506 33.3218 55.7562 32.7945 56.5582 32.008C57.3606 31.221 57.762 30.1716 57.762 29.1218C57.762 28.072 57.3606 27.0226 56.5582 26.2356C55.7562 25.449 54.5506 24.9218 52.937 24.9218C51.3233 24.9218 50.1177 25.449 49.3157 26.2356C48.5133 27.0226 48.112 28.072 48.112 29.1218C48.112 30.1716 48.5133 31.221 49.3157 32.008ZM49.2457 54.0919C50.0687 53.2847 51.3006 52.7495 52.937 52.7495C54.5733 52.7495 55.8052 53.2847 56.6282 54.0919C57.4508 54.8987 57.862 55.9743 57.862 57.0495C57.862 58.1247 57.4508 59.2003 56.6282 60.0071C55.8052 60.8143 54.5733 61.3495 52.937 61.3495C51.3006 61.3495 50.0687 60.8143 49.2457 60.0071C48.4231 59.2003 48.012 58.1247 48.012 57.0495C48.012 55.9743 48.4231 54.8987 49.2457 54.0919ZM49.3157 59.9357C50.1177 60.7222 51.3233 61.2495 52.937 61.2495C54.5506 61.2495 55.7562 60.7222 56.5582 59.9357C57.3606 59.1487 57.762 58.0993 57.762 57.0495C57.762 55.9997 57.3606 54.9503 56.5582 54.1633C55.7562 53.3768 54.5506 52.8495 52.937 52.8495C51.3233 52.8495 50.1177 53.3768 49.3157 54.1633C48.5133 54.9503 48.112 55.9997 48.112 57.0495C48.112 58.0993 48.5133 59.1487 49.3157 59.9357Z" fill="black"/>
<path fill-rule="evenodd" clip-rule="evenodd" d="M52.937 15.9218C30.9596 15.9218 19.987 29.1649 19.987 42.3255C19.987 48.9078 22.731 55.4736 28.2202 60.3605C33.3729 64.9477 40.9472 68.0577 50.9469 68.3094C47.4146 67.8995 44.6898 66.3982 42.7751 64.304C40.5157 61.8328 39.387 58.5391 39.387 55.2468C39.387 51.9545 40.5157 48.6608 42.7751 46.1896C45.0351 43.7177 48.4237 42.0719 52.9365 42.0718C57.4235 42.0094 60.7849 40.3428 63.025 37.8811C65.2658 35.4186 66.387 32.1575 66.387 28.903C66.387 25.6485 65.2658 22.4032 63.0252 19.9721C60.7853 17.5417 57.424 15.9218 52.937 15.9218ZM49.2457 26.1642C50.0687 25.357 51.3006 24.8218 52.937 24.8218C54.5733 24.8218 55.8052 25.357 56.6282 26.1642C57.4508 26.971 57.862 28.0466 57.862 29.1218C57.862 30.197 57.4508 31.2726 56.6282 32.0793C55.8052 32.8865 54.5733 33.4218 52.937 33.4218C51.3006 33.4218 50.0687 32.8865 49.2457 32.0793C48.4231 31.2726 48.012 30.197 48.012 29.1218C48.012 28.0466 48.4231 26.971 49.2457 26.1642Z" fill="black"/>
<path d="M52.937 61.2495C51.3233 61.2495 50.1177 60.7222 49.3157 59.9357C48.5133 59.1487 48.112 58.0993 48.112 57.0495C48.112 55.9997 48.5133 54.9503 49.3157 54.1633C50.1177 53.3768 51.3233 52.8495 52.937 52.8495C54.5506 52.8495 55.7562 53.3768 56.5582 54.1633C57.3606 54.9503 57.762 55.9997 57.762 57.0495C57.762 58.0993 57.3606 59.1487 56.5582 59.9357C55.7562 60.7222 54.5506 61.2495 52.937 61.2495Z" fill="black"/>
<path fill-rule="evenodd" clip-rule="evenodd" d="M52.9367 68.3218C48.4499 68.3217 45.0887 66.6863 42.8489 64.2365C40.6082 61.7858 39.487 58.517 39.487 55.2468C39.487 51.9766 40.6082 48.7078 42.8489 46.2571C45.0888 43.8072 48.45 42.1718 52.937 42.1718C57.4499 42.1091 60.839 40.4319 63.0989 37.9484C65.3582 35.4656 66.487 32.1798 66.487 28.903C66.487 25.6263 65.3582 22.3559 63.0987 19.9043C61.2563 17.9051 58.6639 16.4524 55.3238 15.9837C64.2517 16.4535 71.0371 19.5591 75.6835 24.0406C80.7358 28.9135 83.262 35.4159 83.262 41.9343C83.262 48.4526 80.7357 54.9864 75.6833 59.9219C70.6312 64.8571 63.0504 68.1968 52.9367 68.3218ZM49.2457 54.0919C50.0687 53.2847 51.3006 52.7495 52.937 52.7495C54.5733 52.7495 55.8052 53.2847 56.6282 54.0919C57.4508 54.8987 57.862 55.9743 57.862 57.0495C57.862 58.1247 57.4508 59.2003 56.6282 60.0071C55.8052 60.8143 54.5733 61.3495 52.937 61.3495C51.3006 61.3495 50.0687 60.8143 49.2457 60.0071C48.4231 59.2003 48.012 58.1247 48.012 57.0495C48.012 55.9743 48.4231 54.8987 49.2457 54.0919Z" fill="white"/>
<path d="M52.937 33.3218C51.3233 33.3218 50.1177 32.7945 49.3157 32.008C48.5133 31.221 48.112 30.1716 48.112 29.1218C48.112 28.072 48.5133 27.0226 49.3157 26.2356C50.1177 25.449 51.3233 24.9218 52.937 24.9218C54.5506 24.9218 55.7562 25.449 56.5582 26.2356C57.3606 27.0226 57.762 28.072 57.762 29.1218C57.762 30.1716 57.3606 31.221 56.5582 32.008C55.7562 32.7945 54.5506 33.3218 52.937 33.3218Z" fill="white"/>
<path fill-rule="evenodd" clip-rule="evenodd" d="M42.8489 64.2365C45.0887 66.6863 48.4499 68.3217 52.9367 68.3218C63.0504 68.1968 70.6312 64.8571 75.6833 59.9219C80.7357 54.9864 83.262 48.4526 83.262 41.9343C83.262 35.4159 80.7358 28.9135 75.6835 24.0406C71.0371 19.5591 64.2517 16.4535 55.3238 15.9837C58.6639 16.4524 61.2563 17.9051 63.0987 19.9043C65.3582 22.3559 66.487 25.6263 66.487 28.903C66.487 32.1798 65.3582 35.4656 63.0989 37.9484C60.839 40.4319 57.4499 42.1091 52.937 42.1718C48.45 42.1718 45.0888 43.8072 42.8489 46.2571C40.6082 48.7078 39.487 51.9766 39.487 55.2468C39.487 58.517 40.6082 61.7858 42.8489 64.2365ZM52.937 24.8218C51.3006 24.8218 50.0687 25.357 49.2457 26.1642C48.4231 26.971 48.012 28.0466 48.012 29.1218C48.012 30.197 48.4231 31.2726 49.2457 32.0793C50.0687 32.8865 51.3006 33.4218 52.937 33.4218C54.5733 33.4218 55.8052 32.8865 56.6282 32.0793C57.4508 31.2726 57.862 30.197 57.862 29.1218C57.862 28.0466 57.4508 26.971 56.6282 26.1642C55.8052 25.357 54.5733 24.8218 52.937 24.8218ZM52.937 33.3218C51.3233 33.3218 50.1177 32.7945 49.3157 32.008C48.5133 31.221 48.112 30.1716 48.112 29.1218C48.112 28.072 48.5133 27.0226 49.3157 26.2356C50.1177 25.449 51.3233 24.9218 52.937 24.9218C54.5506 24.9218 55.7562 25.449 56.5582 26.2356C57.3606 27.0226 57.762 28.072 57.762 29.1218C57.762 30.1716 57.3606 31.221 56.5582 32.008C55.7562 32.7945 54.5506 33.3218 52.937 33.3218ZM52.937 52.7495C51.3006 52.7495 50.0687 53.2847 49.2457 54.0919C48.4231 54.8987 48.012 55.9743 48.012 57.0495C48.012 58.1247 48.4231 59.2003 49.2457 60.0071C50.0687 60.8143 51.3006 61.3495 52.937 61.3495C54.5733 61.3495 55.8052 60.8143 56.6282 60.0071C57.4508 59.2003 57.862 58.1247 57.862 57.0495C57.862 55.9743 57.4508 54.8987 56.6282 54.0919C55.8052 53.2847 54.5733 52.7495 52.937 52.7495Z" fill="white"/>
</g>
<g filter="url(#filter1_d)">
<path d="M34.7093 81.2932C34.4082 81.618 34.1545 82.0063 33.9456 82.4511L33.9441 82.4543C33.5767 83.2516 33.4065 84.2289 33.4065 85.3633C33.4065 86.37 33.6023 87.3131 33.9986 88.1862C34.3986 89.0677 34.9836 89.785 35.7521 90.3271C36.4406 90.8127 37.2335 91.0797 38.1158 91.1388C37.902 91.1485 37.6803 91.1533 37.4504 91.1533C36.3119 91.1533 35.3877 90.923 34.6532 90.4904C33.9065 90.0443 33.3535 89.4456 32.9829 88.6882C32.6061 87.9119 32.4119 87.0205 32.4119 86.0034C32.4119 84.8095 32.6861 83.7864 33.2189 82.9166C33.6259 82.2598 34.1222 81.72 34.7093 81.2932Z" fill="#5C5C5C"/>
<path d="M49.2787 90.2209C49.8525 90.7506 50.5491 91.0449 51.3448 91.1159C51.3197 91.1161 51.2945 91.1162 51.2692 91.1162C50.3128 91.1162 49.4816 90.8773 48.7594 90.409C48.0281 89.9287 47.4595 89.2784 47.052 88.4466C46.6431 87.6057 46.4348 86.6675 46.4348 85.6231C46.4348 84.5052 46.6612 83.5363 47.1001 82.703C47.5357 81.8874 48.1485 81.2546 48.9459 80.7964C48.7708 80.948 48.6099 81.1208 48.4641 81.3153C47.7907 82.2131 47.4943 83.5 47.4943 85.0943C47.4943 86.1044 47.6304 87.0575 47.9062 87.9508L47.9072 87.954C48.1949 88.8638 48.6472 89.6246 49.2745 90.2171L49.2787 90.2209Z" fill="#5C5C5C"/>
<path d="M53.9269 80.9126C53.5208 80.5199 53.0523 80.2493 52.5297 80.0986C53.2642 80.1819 53.9099 80.4193 54.4765 80.8042L54.4802 80.8067C55.217 81.2979 55.7825 81.9616 56.1784 82.8101L56.179 82.8113C56.5784 83.6614 56.7809 84.5962 56.7809 85.6231C56.7809 86.6291 56.5604 87.5481 56.1232 88.3886C55.6911 89.2131 55.0642 89.8724 54.2316 90.3708C54.2042 90.3873 54.1765 90.4035 54.1486 90.4194C54.4305 90.2004 54.6725 89.9288 54.87 89.6019L54.8708 89.6005C55.4495 88.636 55.7214 87.4422 55.7214 86.0498C55.7214 85.0677 55.5814 84.1237 55.2998 83.2199C55.0125 82.2979 54.558 81.5229 53.9269 80.9126Z" fill="#5C5C5C"/>
<path fill-rule="evenodd" clip-rule="evenodd" d="M51.9186 79.065C50.6348 79.065 49.4896 79.3373 48.4998 79.8997C47.514 80.4536 46.7505 81.2343 46.2173 82.2333L46.2161 82.2357C45.6905 83.2329 45.4348 84.3664 45.4348 85.6231C45.4348 86.8049 45.6716 87.8951 46.1531 88.8848L46.1537 88.886C46.6366 89.8719 47.3231 90.6623 48.2116 91.2456L48.2139 91.2471C49.1118 91.8297 50.1357 92.1162 51.2692 92.1162C52.5813 92.1162 53.7463 91.8269 54.7453 91.2288C55.7308 90.6389 56.4891 89.8451 57.0095 88.8517L57.0102 88.8504C57.5253 87.8603 57.7809 86.7817 57.7809 85.6231C57.7809 84.4606 57.5506 83.3792 57.0842 82.3863C56.6146 81.3805 55.9316 80.5729 55.0367 79.9759C54.1354 79.3641 53.0895 79.065 51.9186 79.065ZM53.9269 80.9126C53.5208 80.5199 53.0523 80.2493 52.5297 80.0986C53.2642 80.1819 53.9099 80.4193 54.4765 80.8042L54.4802 80.8067C55.217 81.2979 55.7825 81.9616 56.1784 82.8101L56.179 82.8113C56.5784 83.6614 56.7809 84.5962 56.7809 85.6231C56.7809 86.6291 56.5604 87.5481 56.1232 88.3886C55.6911 89.2131 55.0642 89.8724 54.2316 90.3708C54.2042 90.3873 54.1765 90.4035 54.1486 90.4194C54.4305 90.2004 54.6725 89.9288 54.87 89.6019L54.8708 89.6005C55.4495 88.636 55.7214 87.4422 55.7214 86.0498C55.7214 85.0677 55.5814 84.1237 55.2998 83.2199C55.0125 82.2979 54.558 81.5229 53.9269 80.9126ZM49.2787 90.2209C49.8525 90.7506 50.5491 91.0449 51.3448 91.1159C51.3197 91.1161 51.2945 91.1162 51.2692 91.1162C50.3128 91.1162 49.4816 90.8773 48.7594 90.409C48.0281 89.9287 47.4595 89.2784 47.052 88.4466C46.6431 87.6057 46.4348 86.6675 46.4348 85.6231C46.4348 84.5052 46.6612 83.5363 47.1001 82.703C47.5357 81.8874 48.1485 81.2546 48.9459 80.7964C48.7708 80.948 48.6099 81.1208 48.4641 81.3153C47.7907 82.2131 47.4943 83.5 47.4943 85.0943C47.4943 86.1044 47.6304 87.0575 47.9062 87.9508L47.9072 87.954C48.1949 88.8638 48.6472 89.6246 49.2745 90.2171L49.2787 90.2209ZM38.1833 79.1763C37.024 79.1763 35.9229 79.4537 34.887 80.0049L34.8858 80.0055C33.8467 80.562 33.0064 81.3605 32.3681 82.3911L32.3669 82.393C31.725 83.4404 31.4119 84.6497 31.4119 86.0034C31.4119 87.1508 31.6319 88.1951 32.0837 89.1256L32.0843 89.1269C32.5423 90.0635 33.2319 90.8065 34.1419 91.3497L34.1443 91.3512C35.0672 91.8953 36.1775 92.1533 37.4504 92.1533C38.4232 92.1533 39.2902 92.0709 40.0464 91.9C40.8129 91.7281 41.5216 91.4493 42.1694 91.062L42.4128 90.9164V87.6543L43.5089 87.2919L43.7609 85.7168H37.5834L37.3398 87.4023L39.5945 87.7653V89.9439C39.5028 89.9792 39.3958 90.0146 39.272 90.0496L39.2692 90.0504C39.0414 90.1162 38.7857 90.1514 38.4988 90.1514C37.6432 90.1514 36.9272 89.9322 36.3285 89.5099C35.7115 89.0747 35.2389 88.4995 34.9092 87.7729C34.5756 87.0379 34.4065 86.2368 34.4065 85.3633C34.4065 84.3215 34.5638 83.4996 34.8516 82.8745C35.152 82.2353 35.5362 81.7979 35.9904 81.5251C36.4704 81.2405 37.0117 81.0948 37.6267 81.0948C38.2694 81.0948 38.7872 81.1955 39.1961 81.3767L39.2031 81.3796C39.5898 81.544 39.8793 81.7214 40.0877 81.9038L40.456 83.8581L42.1479 84.1498L42.4338 80.3135L42.1794 80.1532C41.6736 79.8344 41.0774 79.5967 40.4002 79.4322C39.718 79.2602 38.9782 79.1763 38.1833 79.1763ZM33.9456 82.4511C34.1545 82.0063 34.4082 81.618 34.7093 81.2932C34.1222 81.72 33.6259 82.2598 33.2189 82.9166C32.6861 83.7864 32.4119 84.8095 32.4119 86.0034C32.4119 87.0205 32.6061 87.9119 32.9829 88.6882C33.3535 89.4456 33.9065 90.0443 34.6532 90.4904C35.3877 90.923 36.3119 91.1533 37.4504 91.1533C37.6803 91.1533 37.902 91.1485 38.1158 91.1388C37.2335 91.0797 36.4406 90.8127 35.7521 90.3271C34.9836 89.785 34.3986 89.0677 33.9986 88.1862C33.6023 87.3131 33.4065 86.37 33.4065 85.3633C33.4065 84.2289 33.5767 83.2516 33.9441 82.4543L33.9456 82.4511ZM39.8195 90.926C39.7283 90.9466 39.6347 90.9657 39.5388 90.9836L39.5454 91.0115C39.6403 90.9847 39.7319 90.9562 39.8195 90.926ZM40.1577 80.4023C39.7138 80.2903 39.233 80.2191 38.7138 80.1906C39.0292 80.2507 39.3244 80.3401 39.5977 80.4608C40.1301 80.6874 40.575 80.9637 40.9066 81.3028L41.0124 81.411L41.2538 82.6917L41.3909 80.852C41.0442 80.6693 40.6362 80.5185 40.1621 80.4034L40.1577 80.4023ZM48.4943 85.0943C48.4943 83.5961 48.7778 82.5637 49.2641 81.9153C49.7301 81.2939 50.4357 80.9556 51.4733 80.9556C52.1954 80.9556 52.7695 81.1844 53.2317 81.6314C53.7262 82.1096 54.1005 82.7324 54.3451 83.5174C54.5954 84.3207 54.7214 85.1641 54.7214 86.0498C54.7214 87.3167 54.4738 88.3184 54.0136 89.0856C53.6103 89.7523 52.9002 90.1328 51.7331 90.1328C50.9981 90.1328 50.4191 89.9117 49.959 89.488C49.4745 89.0297 49.1051 88.4247 48.8612 87.6542C48.6179 86.8656 48.4943 86.0133 48.4943 85.0943Z" fill="#5C5C5C"/>
<path fill-rule="evenodd" clip-rule="evenodd" d="M66.7683 87.8579L67.4854 89.8514L66.1 90.297L65.8456 91.8658H71.658L71.8372 90.2727L70.4157 89.8162L66.7365 79.0237L64.6362 79.4549L60.6578 89.7782L59.2013 90.3159L59.0128 91.8658H64.355L64.5783 90.2416L62.9402 89.8541L63.5948 87.8579H66.7683ZM60.5993 90.8658H62.8729L61.6509 90.5767L62.8703 86.8579H62.8856L63.7377 84.5672L61.4283 90.5597L60.5993 90.8658ZM67.5976 90.8658H70.4135L69.6314 90.6146L66.0743 80.1805L65.3728 80.3245L65.3641 80.3471L67.5435 86.9116H67.4906L68.7766 90.4865L67.5976 90.8658ZM64.3046 85.9116H66.1579L65.2839 83.2791L64.3046 85.9116Z" fill="#5C5C5C"/>
<path d="M70.4135 90.8658H67.5976L68.7766 90.4865L67.4906 86.9116H67.5435L65.3641 80.3471L65.3728 80.3245L66.0743 80.1805L69.6314 90.6146L70.4135 90.8658Z" fill="#5C5C5C"/>
<path d="M62.8729 90.8658H60.5993L61.4283 90.5597L63.7377 84.5672L62.8856 86.8579H62.8703L61.6509 90.5767L62.8729 90.8658Z" fill="#5C5C5C"/>
<path d="M38.7138 80.1906C39.233 80.2191 39.7138 80.2903 40.1577 80.4023L40.1621 80.4034C40.6362 80.5185 41.0442 80.6693 41.3909 80.852L41.2538 82.6917L41.0124 81.411L40.9066 81.3028C40.575 80.9637 40.1301 80.6874 39.5977 80.4608C39.3244 80.3401 39.0292 80.2507 38.7138 80.1906Z" fill="#5C5C5C"/>
</g>
<defs>
<filter id="filter0_d" x="0.536377" y="0.763184" width="110.176" height="90.7219" filterUnits="userSpaceOnUse" color-interpolation-filters="sRGB">
<feFlood flood-opacity="0" result="BackgroundImageFix"/>
<feColorMatrix in="SourceAlpha" type="matrix" values="0 0 0 0 0 0 0 0 0 0 0 0 0 0 0 0 0 0 127 0"/>
<feOffset dx="4" dy="4"/>
<feGaussianBlur stdDeviation="5"/>
<feColorMatrix type="matrix" values="0 0 0 0 0 0 0 0 0 0 0 0 0 0 0 0 0 0 0.6 0"/>
<feBlend mode="normal" in2="BackgroundImageFix" result="effect1_dropShadow"/>
<feBlend mode="normal" in="SourceGraphic" in2="effect1_dropShadow" result="shape"/>
</filter>
<filter id="filter1_d" x="29.4119" y="77.0237" width="48.4253" height="21.1297" filterUnits="userSpaceOnUse" color-interpolation-filters="sRGB">
<feFlood flood-opacity="0" result="BackgroundImageFix"/>
<feColorMatrix in="SourceAlpha" type="matrix" values="0 0 0 0 0 0 0 0 0 0 0 0 0 0 0 0 0 0 127 0"/>
<feOffset dx="2" dy="2"/>
<feGaussianBlur stdDeviation="2"/>
<feColorMatrix type="matrix" values="0 0 0 0 0.35 0 0 0 0 0.163927 0 0 0 0 0.0408333 0 0 0 1 0"/>
<feBlend mode="multiply" in2="BackgroundImageFix" result="effect1_dropShadow"/>
<feBlend mode="normal" in="SourceGraphic" in2="effect1_dropShadow" result="shape"/>
</filter>
<radialGradient id="paint0_radial" cx="0" cy="0" r="1" gradientUnits="userSpaceOnUse" gradientTransform="translate(51.6245 42.1241) rotate(-11.8328) scale(69.4034 65.5755)">
<stop stop-color="#B76B40"/>
<stop offset="0.285811" stop-color="#602200"/>
<stop offset="0.42882" stop-color="#8C4013"/>
<stop offset="0.595494" stop-color="#612B00"/>
<stop offset="0.699484" stop-color="#331700"/>
</radialGradient>
<linearGradient id="paint1_linear" x1="19.3222" y1="3.96897" x2="44.3555" y2="25.2937" gradientUnits="userSpaceOnUse">
<stop stop-color="#5F310D" stop-opacity="0.4"/>
<stop offset="1" stop-opacity="0"/>
</linearGradient>
</defs>
</svg>
