<svg width="43" height="44" viewBox="0 0 43 44" fill="none" xmlns="http://www.w3.org/2000/svg">
<g clip-path="url(#clip0)">
<path d="M32.3136 24.1415C31.27 24.1474 30.3629 24.4228 29.6035 24.83C29.3247 24.2252 29.046 23.6864 28.9969 23.2912C28.9422 22.8302 28.8767 22.5488 28.9422 21.9979C29.0078 21.4471 29.3029 20.6627 29.2974 20.6028C29.292 20.543 29.2318 20.2615 28.6307 20.2556C28.0297 20.2496 27.5106 20.3813 27.4505 20.5549C27.3904 20.7285 27.2757 21.1238 27.1991 21.5308C27.0953 22.1297 25.9971 24.2671 25.3688 25.3867C25.1665 24.9498 24.9917 24.5665 24.9534 24.2611C24.8987 23.8002 24.8331 23.5187 24.8987 22.9679C24.9644 22.417 25.2594 21.6327 25.2539 21.5728C25.2484 21.5129 25.1883 21.2315 24.5873 21.2256C23.9861 21.2195 23.467 21.3513 23.407 21.5249C23.3469 21.6986 23.2813 22.1057 23.1557 22.5009C23.0299 22.8961 21.571 26.4647 21.1885 27.3866C21.034 27.7598 20.8718 28.1291 20.7022 28.4943C20.7022 28.4943 20.6967 28.5123 20.6803 28.5422C20.6271 28.6567 20.5724 28.7705 20.5165 28.8835V28.8894C20.4345 29.0512 20.3471 29.2008 20.3034 29.2008C20.2705 29.2008 20.2104 28.7698 20.3143 28.183C20.5328 26.9436 21.0519 25.0156 21.0465 24.9498C21.0465 24.9138 21.1448 24.5786 20.7078 24.4048C20.2814 24.2312 20.1285 24.5186 20.0902 24.5186C20.052 24.5186 20.0246 24.6204 20.0246 24.6204C20.0246 24.6204 20.5001 22.453 19.1176 22.453C18.2543 22.453 17.0631 23.4888 16.4729 24.4228C15.8021 24.8228 15.1318 25.224 14.4621 25.6263C14.1399 25.8239 13.8065 26.0216 13.495 26.2071C13.4731 26.1832 13.4513 26.1532 13.4294 26.1293C11.7573 24.1714 8.66467 22.7882 8.79579 20.1598C8.84501 19.2018 9.14546 16.6871 14.7354 13.6335C19.3361 11.1487 22.9972 11.8372 23.6311 13.364C24.5381 15.5435 21.6695 19.591 16.9155 20.1777C15.1014 20.3993 14.1506 19.6329 13.9103 19.3455C13.6589 19.0461 13.6206 19.0281 13.5277 19.0881C13.3748 19.1779 13.4731 19.4473 13.5277 19.603C13.6698 20.01 14.2545 20.7285 15.2435 21.0819C16.1178 21.3931 18.2433 21.5669 20.817 20.4771C23.6966 19.2556 25.9479 15.8608 25.2867 13.0168C24.6255 10.1308 20.2541 9.17883 16.1178 10.7894C13.6589 11.7475 10.9924 13.2563 9.07445 15.2202C6.79586 17.5552 6.43517 19.585 6.58271 20.4353C7.11283 23.4529 10.9104 25.4168 12.4295 26.8717C12.353 26.9196 12.2818 26.9616 12.2218 26.9975C11.4623 27.4106 8.56624 29.0691 7.84498 30.8234C7.02542 32.8112 7.97623 34.2364 8.60455 34.4278C10.5553 35.0207 12.5606 33.9549 13.637 32.1945C14.7135 30.4342 14.5823 28.147 14.0851 27.0992C14.0796 27.0873 14.0742 27.0752 14.0632 27.0633C14.26 26.9376 14.4621 26.8058 14.6588 26.6801C15.0205 26.4459 15.3867 26.2203 15.7572 26.0034C15.5713 26.5603 15.4347 27.2249 15.3692 28.183C15.2872 29.3087 15.7079 30.7695 16.2598 31.3442C16.5057 31.5959 16.7953 31.6018 16.9811 31.6018C17.6259 31.6018 17.9156 31.015 18.2379 30.3205C18.6313 29.4703 18.9865 28.4824 18.9865 28.4824C18.9865 28.4824 18.5439 31.1528 19.746 31.1528C20.1831 31.1528 20.6257 30.53 20.8225 30.2127V30.2187C20.8225 30.2187 20.8334 30.2007 20.8553 30.1588C20.899 30.081 20.9263 30.033 20.9263 30.033V30.0212C21.1011 29.6858 21.4946 28.9254 22.0792 27.662C22.8333 26.0335 23.5601 23.9978 23.5601 23.9978C23.5601 23.9978 23.6257 24.4947 23.8496 25.321C23.9809 25.806 24.2539 26.3388 24.4726 26.8537C24.2977 27.1232 24.1884 27.2728 24.1884 27.2728L24.1939 27.2789C24.0518 27.4824 23.8988 27.7039 23.7294 27.9196C23.1338 28.6978 22.4235 29.5901 22.3251 29.8474C22.2103 30.1528 22.2377 30.3744 22.4563 30.554C22.6148 30.6858 22.8988 30.7036 23.1885 30.6858C23.724 30.6438 24.101 30.5001 24.2867 30.4104C24.5764 30.2966 24.9152 30.1229 25.232 29.8654C25.8167 29.3924 26.1718 28.7158 26.1391 27.8238C26.1227 27.3328 25.9752 26.8418 25.7948 26.3807C25.8496 26.297 25.8987 26.2131 25.9534 26.1293C26.8768 24.6503 27.5926 23.0277 27.5926 23.0277C27.5926 23.0277 27.6583 23.5246 27.8822 24.351C27.9915 24.7701 28.2156 25.2252 28.4122 25.6682C27.5434 26.4407 27.0079 27.3387 26.8167 27.9255C26.4725 29.0153 26.7401 29.5061 27.2484 29.6199C27.4778 29.6738 27.8057 29.554 28.0461 29.4403C28.3521 29.3325 28.7128 29.147 29.057 28.8715C29.6418 28.3985 30.2045 27.7398 30.1717 26.8478C30.1553 26.4407 30.057 26.0394 29.9203 25.6502C30.658 25.3151 31.6088 25.1294 32.8217 25.285C35.4228 25.6203 35.9364 27.3985 35.838 28.1471C35.7397 28.8955 35.1932 29.3026 35.013 29.4283C34.8326 29.5542 34.7726 29.596 34.789 29.6858C34.8108 29.8175 34.8982 29.8116 35.0512 29.7876C35.2644 29.7457 36.4173 29.1828 36.4664 27.8057C36.5485 26.0454 35.0184 24.1235 32.3136 24.1415ZM12.2491 31.5539C11.3857 32.5837 10.1837 32.9729 9.66458 32.6437C9.10726 32.2903 9.32581 30.7695 10.3858 29.6799C11.0306 29.0153 11.8611 28.3984 12.4131 28.0213C12.5387 27.9374 12.7245 27.8178 12.9486 27.6681C12.9868 27.644 13.0087 27.6321 13.0087 27.6321L13.1398 27.5422C13.5277 29.099 13.1562 30.4702 12.2491 31.5539ZM18.533 26.8717C18.2324 27.6741 17.6041 29.7278 17.2216 29.614C16.8937 29.5182 16.6915 27.9615 17.156 26.4227C17.3909 25.6502 17.8881 24.7282 18.1778 24.369C18.6477 23.7941 19.1668 23.6024 19.2924 23.8361C19.451 24.1415 18.7187 26.3688 18.533 26.8717ZM23.7185 29.59C23.5928 29.6619 23.4726 29.7098 23.4179 29.6738C23.3797 29.6498 23.4726 29.554 23.4726 29.554C23.4726 29.554 24.1229 28.7877 24.3796 28.4404C24.5273 28.2369 24.702 27.9974 24.8878 27.7279V27.8057C24.8878 28.7219 24.0791 29.3386 23.7184 29.59H23.7185ZM27.7182 28.5901C27.6253 28.5182 27.6417 28.2787 27.9532 27.5303C28.0734 27.2369 28.3575 26.746 28.8439 26.273C28.8985 26.4645 28.9368 26.6502 28.9313 26.8238C28.9258 27.9794 28.1719 28.4105 27.7182 28.5901Z" fill="#CD6799"/>
</g>
<circle cx="21.5" cy="22.2778" r="20" stroke="#CD6799" stroke-width="3"/>
<defs>
<clipPath id="clip0">
<rect width="30.0044" height="24.6533" fill="white" transform="translate(6.4978 9.95116)"/>
</clipPath>
</defs>
</svg>
