<svg width="1400" height="794" viewBox="0 0 1400 794" fill="none" xmlns="http://www.w3.org/2000/svg">
<path d="M163.5 1.56012C79.8557 7.95888 0 55.6273 0 55.6273V791.56C0 791.56 97.0899 694.074 185.5 706.954C291.355 722.375 315.953 781.102 422.5 791.56C532.765 802.383 565.5 681.846 686.5 693.06C807.5 704.274 793.333 776.717 945.5 791.56C1063.24 803.044 1100.9 731.751 1218 715.56C1308.48 703.049 1400 791.56 1400 791.56V95.5601C1375.5 55.6273 1323.5 11.5598 1218 1.5601C1090.09 -10.5639 1067.32 95.2787 952.5 95.5599C834.306 95.8493 804.683 0.0396709 686.5 1.56013C581.277 2.91385 527.727 96.6576 422.5 95.5601C311.555 94.4029 274.082 -6.89939 163.5 1.56012Z" fill="url(#paint0_linear)" stroke="url(#paint1_linear)"/>
<defs>
<linearGradient id="paint0_linear" x1="0" y1="396.699" x2="1400" y2="396.699" gradientUnits="userSpaceOnUse">
<stop stop-color="#FFB75E"/>
<stop offset="1" stop-color="#E6A038"/>
</linearGradient>
<linearGradient id="paint1_linear" x1="0" y1="396.699" x2="1400" y2="396.699" gradientUnits="userSpaceOnUse">
<stop stop-color="#FFB75E"/>
<stop offset="1" stop-color="#E6A038"/>
</linearGradient>
</defs>
</svg>
