<svg width="43" height="44" viewBox="0 0 43 44" fill="none" xmlns="http://www.w3.org/2000/svg">
<path d="M42.189 20.3619L23.4148 1.58874C22.3343 0.507528 20.5807 0.507528 19.4988 1.58874L15.6003 5.4873L20.5458 10.4328C21.695 10.0445 23.0129 10.305 23.929 11.2211C24.8495 12.1431 25.1081 13.4722 24.7104 14.6251L29.4765 19.3914C30.6296 18.9942 31.9601 19.2512 32.8811 20.1736C34.1682 21.4603 34.1682 23.5456 32.8811 24.8331C31.5936 26.1208 29.5082 26.1208 28.2201 24.8331C27.2519 23.8639 27.0127 22.4421 27.5029 21.2493L23.0581 16.8045L23.0576 28.5014C23.3798 28.6607 23.6741 28.8711 23.929 29.1245C25.2161 30.4112 25.2161 32.4967 23.929 33.7852C22.6415 35.0721 20.5552 35.0721 19.2695 33.7852C17.9824 32.4967 17.9824 30.4113 19.2695 29.1247C19.578 28.8161 19.9446 28.5717 20.3481 28.4056V16.5998C19.944 16.4348 19.5772 16.1903 19.2695 15.8807C18.2943 14.9068 18.0598 13.4759 18.5595 12.2784L13.6844 7.40281L0.811289 20.2751C-0.27043 21.3573 -0.27043 23.1111 0.811289 24.1925L19.5858 42.966C20.6667 44.0474 22.42 44.0474 23.5022 42.966L42.1889 24.2796C43.2703 23.1979 43.2703 21.4432 42.1889 20.3619" fill="#DE4C36"/>
</svg>
