<svg width="43" height="50" viewBox="0 0 43 50" fill="none" xmlns="http://www.w3.org/2000/svg">
<path d="M3.91337 44.7561L0 0.777832H43L39.0814 44.7491L21.4739 49.6406L3.91337 44.7561Z" fill="#E44F26"/>
<path d="M21.5 45.9023L35.7289 41.9497L39.0762 4.37427H21.5V45.9023Z" fill="#F1662A"/>
<path d="M21.5001 20.6842H14.3769L13.8858 15.161H21.5001V9.76685H8.00269L8.13156 11.2153L9.45344 26.0784H21.5001V20.6842Z" fill="#EBEBEB"/>
<path d="M21.5001 34.6919L21.4757 34.6989L15.4812 33.0777L15.098 28.7759H9.69385L10.448 37.2433L21.4757 40.3113L21.5001 40.3043V34.6919Z" fill="#EBEBEB"/>
<path d="M21.4807 20.6846V26.0786H28.1092L27.4857 33.0745L21.4807 34.6974V40.3096L32.5172 37.2435L32.5973 36.3326L33.8617 22.133L33.9941 20.6846H21.4807Z" fill="white"/>
<path d="M21.4807 9.76685V15.1611H34.4835L34.5915 13.95L34.837 11.2153L34.9659 9.76685H21.4807Z" fill="white"/>
</svg>
