<svg width="66" height="67" viewBox="0 0 66 67" fill="none" xmlns="http://www.w3.org/2000/svg">
<path fill-rule="evenodd" clip-rule="evenodd" d="M2.75 7.86512C2.75 6.52458 3.28253 5.23895 4.23043 4.29104C5.17833 3.34314 6.46396 2.81061 7.8045 2.81061H58.19C58.8543 2.80953 59.5124 2.93949 60.1264 3.19305C60.7404 3.44661 61.2984 3.81879 61.7684 4.28829C62.2384 4.75779 62.6112 5.31538 62.8655 5.92914C63.1197 6.5429 63.2504 7.20078 63.25 7.86512V58.2506C63.2507 58.9151 63.1204 59.5732 62.8666 60.1872C62.6127 60.8013 62.2403 61.3592 61.7705 61.8292C61.3008 62.2992 60.7431 62.6719 60.1291 62.9261C59.5152 63.1803 58.8572 63.311 58.1927 63.3106H7.8045C7.1405 63.3106 6.48301 63.1798 5.86959 62.9256C5.25617 62.6714 4.69885 62.2989 4.22946 61.8292C3.76007 61.3596 3.38781 60.802 3.13396 60.1885C2.88011 59.5749 2.74964 58.9174 2.75 58.2534V7.86512ZM26.697 25.8776H34.8893V29.9916C36.0718 27.6266 39.0967 25.4981 43.6425 25.4981C52.3573 25.4981 54.4225 30.2089 54.4225 38.8521V54.8626H45.6032V40.8211C45.6032 35.8986 44.4207 33.1211 41.4178 33.1211C37.2515 33.1211 35.519 36.1159 35.519 40.8211V54.8626H26.697V25.8776ZM11.572 54.4859H20.394V25.4981H11.572V54.4831V54.4859ZM21.6563 16.0436C21.6729 16.799 21.5385 17.55 21.2609 18.2527C20.9833 18.9554 20.5682 19.5956 20.0399 20.1357C19.5116 20.6758 18.8807 21.1049 18.1843 21.3979C17.4878 21.6908 16.7399 21.8418 15.9844 21.8418C15.2288 21.8418 14.4809 21.6908 13.7845 21.3979C13.0881 21.1049 12.4572 20.6758 11.9289 20.1357C11.4005 19.5956 10.9854 18.9554 10.7078 18.2527C10.4303 17.55 10.2959 16.799 10.3125 16.0436C10.3451 14.561 10.9571 13.15 12.0172 12.113C13.0773 11.076 14.5014 10.4953 15.9844 10.4953C17.4674 10.4953 18.8914 11.076 19.9516 12.113C21.0117 13.15 21.6236 14.561 21.6563 16.0436Z" fill="white"/>
</svg>
